REM MD5 a532ae5726e9b4c37b4ffa0b975ecf68
FILE "Simple 1500 Series - The Demo (Japan).bin" BINARY
  TRACK 01 MODE2/2352
    INDEX 01 00:00:00
  TRACK 02 AUDIO
    INDEX 00 14:48:70
    INDEX 01 14:50:70
  TRACK 03 AUDIO
    INDEX 00 14:57:14
    INDEX 01 14:59:14
  TRACK 04 AUDIO
    INDEX 00 15:05:14
    INDEX 01 15:07:14
  TRACK 05 AUDIO
    INDEX 00 15:14:52
    INDEX 01 15:16:52
REM LEADOUT 19:49:53
